<?xml version="1.0" encoding="UTF-8" standalone="no"?>
<!DOCTYPE svg PUBLIC "-//W3C//DTD SVG 1.1//EN" "http://www.w3.org/Graphics/SVG/1.1/DTD/svg11.dtd">
<svg width="100%" height="100%" viewBox="0 0 256 256" version="1.1" xmlns="http://www.w3.org/2000/svg" xmlns:xlink="http://www.w3.org/1999/xlink" xml:space="preserve" xmlns:serif="http://www.serif.com/" style="fill-rule:evenodd;clip-rule:evenodd;stroke-linejoin:round;stroke-miterlimit:2;">
    <g transform="matrix(1,0,0,1,-277,0)">
        <g id="close" transform="matrix(1.14286,0,0,1,-25.8571,0)">
            <rect x="265" y="0" width="224" height="256" style="fill:none;"/>
            <g transform="matrix(0.636916,0.727904,-0.38248,0.437121,346.28,-20.323)">
                <path d="M245,115.75L245,143.25C245,150.839 241.3,157 236.743,157L15.257,157C10.7,157 7,150.839 7,143.25L7,115.75C7,108.161 10.7,102 15.257,102L236.743,102C241.3,102 245,108.161 245,115.75Z" style="fill:rgb(205,255,250);"/>
            </g>
            <g transform="matrix(0.636916,-0.727904,0.38248,0.437121,247.217,163.109)">
                <path d="M245,115.75L245,143.25C245,150.839 241.3,157 236.743,157L15.257,157C10.7,157 7,150.839 7,143.25L7,115.75C7,108.161 10.7,102 15.257,102L236.743,102C241.3,102 245,108.161 245,115.75Z" style="fill:rgb(205,255,250);"/>
            </g>
        </g>
    </g>
</svg>
