<?xml version="1.0" encoding="UTF-8" standalone="no"?>
<!DOCTYPE svg PUBLIC "-//W3C//DTD SVG 1.1//EN" "http://www.w3.org/Graphics/SVG/1.1/DTD/svg11.dtd">
<svg width="100%" height="100%" viewBox="0 0 256 256" version="1.1" xmlns="http://www.w3.org/2000/svg" xmlns:xlink="http://www.w3.org/1999/xlink" xml:space="preserve" xmlns:serif="http://www.serif.com/" style="fill-rule:evenodd;clip-rule:evenodd;stroke-linejoin:round;stroke-miterlimit:2;">
    <g transform="matrix(1,0,0,1,-277,-272)">
        <g id="unmaximize" transform="matrix(1.14286,0,0,1,-25.8571,272)">
            <rect x="265" y="0" width="224" height="256" style="fill:none;"/>
            <g transform="matrix(0.613397,0,0,2.9902,289.477,-246.462)">
                <path d="M240.487,148.509C231.544,153.492 210.281,157 185.5,157L66.5,157C33.661,157 7,150.839 7,143.25L7,115.75C7,110.676 18.917,106.241 36.629,103.858C45.572,98.875 66.835,93.459 91.616,93.459L210.616,93.459C243.455,93.459 278.371,101.528 278.371,109.117L278.371,136.617C278.371,141.69 258.199,146.126 240.487,148.509ZM68.544,102L185.5,102C218.339,102 245,108.161 245,115.75L245,140.781C249.836,138.985 256.757,136.865 256.757,134.596L256.757,111.137C256.757,104.664 229.886,99.408 201.873,99.408L100.358,99.408C88.318,99.408 77.25,100.379 68.544,102ZM216.507,117.77C216.507,111.297 204.771,108.584 176.757,108.584L75.243,108.584C47.229,108.584 35.493,111.297 35.493,117.77L35.493,141.23C35.493,147.703 47.229,150.416 75.243,150.416L176.757,150.416C204.771,150.416 216.507,147.703 216.507,141.23L216.507,117.77Z" style="fill:rgb(205,255,250);"/>
            </g>
        </g>
    </g>
</svg>
