<?xml version="1.0" encoding="UTF-8" standalone="no"?>
<!DOCTYPE svg PUBLIC "-//W3C//DTD SVG 1.1//EN" "http://www.w3.org/Graphics/SVG/1.1/DTD/svg11.dtd">
<svg width="100%" height="100%" viewBox="0 0 256 256" version="1.1" xmlns="http://www.w3.org/2000/svg" xmlns:xlink="http://www.w3.org/1999/xlink" xml:space="preserve" xmlns:serif="http://www.serif.com/" style="fill-rule:evenodd;clip-rule:evenodd;stroke-linejoin:round;stroke-miterlimit:2;">
    <g transform="matrix(1,0,0,1,0,-272)">
        <g id="maximize" transform="matrix(1.14286,0,0,1,-302.857,272)">
            <rect x="265" y="0" width="224" height="256" style="fill:none;"/>
            <g transform="matrix(0.698529,0,0,3.45455,288.985,-319.364)">
                <path d="M245,115.75L245,143.25C245,150.839 218.339,157 185.5,157L66.5,157C33.661,157 7,150.839 7,143.25L7,115.75C7,108.161 33.661,102 66.5,102L185.5,102C218.339,102 245,108.161 245,115.75ZM217.493,117.77C217.493,111.297 204.771,108.357 176.757,108.357L75.243,108.357C47.229,108.357 34.507,111.297 34.507,117.77L34.507,141.23C34.507,147.703 47.229,150.643 75.243,150.643L176.757,150.643C204.771,150.643 217.493,147.703 217.493,141.23L217.493,117.77Z" style="fill:rgb(205,255,250);"/>
            </g>
        </g>
    </g>
</svg>
