<?xml version="1.0" encoding="UTF-8" standalone="no"?>
<!DOCTYPE svg PUBLIC "-//W3C//DTD SVG 1.1//EN" "http://www.w3.org/Graphics/SVG/1.1/DTD/svg11.dtd">
<svg width="100%" height="100%" viewBox="0 0 256 256" version="1.1" xmlns="http://www.w3.org/2000/svg" xmlns:xlink="http://www.w3.org/1999/xlink" xml:space="preserve" xmlns:serif="http://www.serif.com/" style="fill-rule:evenodd;clip-rule:evenodd;stroke-linejoin:round;stroke-miterlimit:2;">
    <rect id="add-button" x="0" y="0" width="256" height="256" style="fill:none;"/>
    <g id="add-button1" serif:id="add-button">
        <g transform="matrix(1,0,0,1,-5.5,1)">
            <path d="M113,147.5L21.75,147.5C16.093,147.5 11.5,142.907 11.5,137.25L11.5,116.75C11.5,111.093 16.093,106.5 21.75,106.5L113,106.5L113,15.25C113,9.593 117.593,5 123.25,5L143.75,5C149.407,5 154,9.593 154,15.25L154,106.5L245.25,106.5C250.907,106.5 255.5,111.093 255.5,116.75L255.5,137.25C255.5,142.907 250.907,147.5 245.25,147.5L154,147.5L154,238.75C154,244.407 149.407,249 143.75,249L123.25,249C117.593,249 113,244.407 113,238.75L113,147.5Z" style="fill:rgb(205,255,250);"/>
        </g>
    </g>
</svg>
