<?xml version="1.0" encoding="UTF-8" standalone="no"?>
<!DOCTYPE svg PUBLIC "-//W3C//DTD SVG 1.1//EN" "http://www.w3.org/Graphics/SVG/1.1/DTD/svg11.dtd">
<svg width="100%" height="100%" viewBox="0 0 256 256" version="1.1" xmlns="http://www.w3.org/2000/svg" xmlns:xlink="http://www.w3.org/1999/xlink" xml:space="preserve" xmlns:serif="http://www.serif.com/" style="fill-rule:evenodd;clip-rule:evenodd;stroke-linejoin:round;stroke-miterlimit:2;">
    <g transform="matrix(1,0,0,1,-1384,-286)">
        <g id="repeats-saturday" transform="matrix(1,0,0,1,1384,286)">
            <rect x="0" y="0" width="256" height="256" style="fill:none;"/>
            <clipPath id="_clip1">
                <rect x="0" y="0" width="256" height="256"/>
            </clipPath>
            <g clip-path="url(#_clip1)">
                <g transform="matrix(1.01186,0,0,1,-5.05929,-286)">
                    <path d="M131.5,286C201.317,286 258,343.355 258,414C258,484.645 201.317,542 131.5,542C61.683,542 5,484.645 5,414C5,343.355 61.683,286 131.5,286ZM200.732,461.302C203.105,465.218 205.35,468.22 207.465,470.308C209.581,472.344 211.722,473.363 213.889,473.363C216.469,473.363 218.765,472.475 220.777,470.7C222.841,468.873 223.873,466.862 223.873,464.67C223.873,463.417 223.202,460.623 221.861,456.29C220.571,451.904 219.926,447.701 219.926,443.681C219.978,439.4 220.003,435.51 220.003,432.012C220.055,428.514 220.081,424.259 220.081,419.247C220.081,411.311 218.971,404.942 216.753,400.138C214.586,395.335 210.845,391.837 205.53,389.644C200.216,387.399 192.914,386.277 183.627,386.277C175.32,386.277 168.38,387.425 162.807,389.722C157.234,392.02 153.132,394.943 150.501,398.494C147.869,402.044 146.554,405.699 146.554,409.458C146.554,411.859 147.405,413.843 149.108,415.41C150.862,416.924 152.926,417.681 155.3,417.681C157.931,417.681 159.634,417.211 160.408,416.271C161.233,415.279 162.601,413.269 164.51,410.241C166.471,407.213 168.792,404.942 171.476,403.428C174.21,401.913 178.261,401.156 183.627,401.156C189.87,401.156 193.972,402.488 195.933,405.15C197.945,407.761 199.08,411.886 199.338,417.524C194.901,418.829 190.773,419.952 186.955,420.892C183.188,421.779 178.648,422.771 173.333,423.868C168.018,424.964 164.69,425.669 163.349,425.982C156.951,427.392 151.92,430.159 148.256,434.284C144.593,438.408 142.761,443.394 142.761,449.242C142.761,453.575 143.871,457.595 146.089,461.302C148.308,465.009 151.456,467.959 155.532,470.152C159.66,472.292 164.432,473.363 169.85,473.363C175.784,473.363 181.124,472.371 185.871,470.387C190.67,468.35 195.623,465.322 200.732,461.302ZM199.338,430.368L199.338,433.422C199.338,440.836 198.384,446.161 196.475,449.398C194.824,452.322 192.218,454.724 188.658,456.603C185.149,458.431 181.305,459.344 177.126,459.344C173.204,459.344 170.031,458.222 167.606,455.977C165.181,453.679 163.968,450.912 163.968,447.675C163.968,444.543 165,442.115 167.064,440.392C169.128,438.617 171.295,437.442 173.565,436.868C175.836,436.241 179.912,435.302 185.794,434.049C191.728,432.743 196.243,431.516 199.338,430.368ZM129.294,436.946C129.294,431.151 128.262,426.269 126.198,422.301C124.186,418.281 121.348,414.966 117.685,412.355C114.073,409.745 109.661,407.526 104.45,405.699C99.29,403.871 93.511,402.201 87.113,400.687C82.005,399.381 78.341,398.389 76.122,397.711C73.904,397.032 71.711,396.092 69.544,394.891C67.377,393.69 65.674,392.255 64.436,390.584C63.197,388.913 62.578,386.929 62.578,384.632C62.578,380.925 64.384,377.766 67.996,375.156C71.659,372.493 76.458,371.162 82.392,371.162C88.79,371.162 93.434,372.389 96.323,374.843C99.213,377.244 101.689,380.612 103.753,384.945C105.353,387.973 106.823,390.166 108.165,391.524C109.558,392.829 111.57,393.482 114.202,393.482C117.091,393.482 119.491,392.385 121.4,390.192C123.36,387.947 124.341,385.441 124.341,382.674C124.341,379.646 123.567,376.539 122.019,373.355C120.471,370.17 118.02,367.142 114.666,364.27C111.312,361.346 107.081,359.023 101.973,357.3C96.916,355.525 90.905,354.637 83.94,354.637C75.22,354.637 67.635,355.969 61.185,358.632C54.735,361.242 49.808,365.001 46.402,369.909C42.997,374.817 41.294,380.429 41.294,386.746C41.294,393.377 42.893,398.937 46.092,403.428C49.343,407.865 53.703,411.39 59.173,414C64.694,416.558 71.53,418.803 79.683,420.735C85.771,422.145 90.622,423.476 94.233,424.729C97.897,425.982 100.864,427.809 103.134,430.211C105.456,432.561 106.617,435.641 106.617,439.452C106.617,444.256 104.476,448.276 100.193,451.513C95.962,454.698 90.441,456.29 83.63,456.29C78.677,456.29 74.678,455.507 71.633,453.94C68.589,452.322 66.216,450.286 64.513,447.832C62.862,445.378 61.314,442.324 59.869,438.669C58.682,435.589 57.238,433.265 55.535,431.699C53.884,430.133 51.846,429.35 49.421,429.35C46.428,429.35 43.951,430.368 41.99,432.404C40.081,434.388 39.127,436.79 39.127,439.609C39.127,444.464 40.726,449.477 43.925,454.645C47.176,459.762 51.381,463.86 56.541,466.941C63.816,471.222 73.052,473.363 84.249,473.363C93.588,473.363 101.663,471.796 108.474,468.664C115.285,465.531 120.445,461.198 123.954,455.663C127.514,450.129 129.294,443.89 129.294,436.946Z" style="fill:rgb(255, 255, 255);"/>
                </g>
            </g>
        </g>
    </g>
</svg>
