<?xml version="1.0" encoding="UTF-8" standalone="no"?>
<!DOCTYPE svg PUBLIC "-//W3C//DTD SVG 1.1//EN" "http://www.w3.org/Graphics/SVG/1.1/DTD/svg11.dtd">
<svg width="100%" height="100%" viewBox="0 0 256 256" version="1.1" xmlns="http://www.w3.org/2000/svg" xmlns:xlink="http://www.w3.org/1999/xlink" xml:space="preserve" xmlns:serif="http://www.serif.com/" style="fill-rule:evenodd;clip-rule:evenodd;stroke-linejoin:round;stroke-miterlimit:2;">
    <g transform="matrix(1,0,0,1,-2,-286)">
        <g id="repeats-monday" transform="matrix(1,0,0,1,2,286)">
            <rect x="0" y="0" width="256" height="256" style="fill:none;"/>
            <g transform="matrix(1.01186,0,0,1,-5.05929,-286)">
                <path d="M131.5,286C201.317,286 258,343.355 258,414C258,484.645 201.317,542 131.5,542C61.683,542 5,484.645 5,414C5,343.355 61.683,286 131.5,286ZM116.098,453.118C116.717,455.52 117.311,457.843 117.878,460.088C118.497,462.281 119.323,464.291 120.355,466.118C121.387,467.946 122.832,469.434 124.689,470.582C126.547,471.783 128.817,472.384 131.5,472.384C135.06,472.384 137.847,471.47 139.859,469.643C141.871,467.815 143.239,465.805 143.961,463.612C144.735,461.367 145.715,457.869 146.902,453.118L165.09,379.972L165.09,459.227C165.09,463.612 166.071,466.902 168.031,469.094C169.992,471.287 172.495,472.384 175.539,472.384C178.79,472.384 181.369,471.287 183.279,469.094C185.239,466.902 186.22,463.612 186.22,459.227L186.22,368.382C186.22,363.37 184.93,360.002 182.35,358.279C179.77,356.504 176.287,355.616 171.901,355.616L164.781,355.616C160.498,355.616 157.376,356.008 155.416,356.791C153.507,357.574 152.088,358.984 151.159,361.02C150.23,363.056 149.172,366.372 147.986,370.966L131.5,433.853L115.014,370.966C113.828,366.372 112.77,363.056 111.841,361.02C110.912,358.984 109.468,357.574 107.507,356.791C105.598,356.008 102.502,355.616 98.219,355.616L91.099,355.616C86.713,355.616 83.23,356.504 80.65,358.279C78.07,360.002 76.78,363.37 76.78,368.382L76.78,459.227C76.78,463.665 77.761,466.98 79.721,469.173C81.682,471.313 84.21,472.384 87.306,472.384C90.505,472.384 93.06,471.287 94.969,469.094C96.929,466.902 97.91,463.612 97.91,459.227L97.91,379.972L116.098,453.118Z" style="fill:rgb(75,157,30);"/>
            </g>
        </g>
    </g>
</svg>
