<?xml version="1.0" encoding="UTF-8" standalone="no"?>
<!DOCTYPE svg PUBLIC "-//W3C//DTD SVG 1.1//EN" "http://www.w3.org/Graphics/SVG/1.1/DTD/svg11.dtd">
<svg width="100%" height="100%" viewBox="0 0 256 256" version="1.1" xmlns="http://www.w3.org/2000/svg" xmlns:xlink="http://www.w3.org/1999/xlink" xml:space="preserve" xmlns:serif="http://www.serif.com/" style="fill-rule:evenodd;clip-rule:evenodd;stroke-linejoin:round;stroke-miterlimit:2;">
    <g transform="matrix(1,0,0,1,-1106,-286)">
        <g id="repeats-friday" transform="matrix(1,0,0,1,1106,286)">
            <rect x="0" y="0" width="256" height="256" style="fill:none;"/>
            <clipPath id="_clip1">
                <rect x="0" y="0" width="256" height="256"/>
            </clipPath>
            <g clip-path="url(#_clip1)">
                <g transform="matrix(1.01186,0,0,1,-5.05929,-286)">
                    <path d="M131.5,286C201.317,286 258,343.355 258,414C258,484.645 201.317,542 131.5,542C61.683,542 5,484.645 5,414C5,343.355 61.683,286 131.5,286ZM210.677,376.017C213.515,376.017 215.966,375.104 218.03,373.276C220.094,371.397 221.126,368.812 221.126,365.523C221.126,362.13 220.068,359.545 217.952,357.77C215.837,355.995 213.412,355.107 210.677,355.107C207.839,355.107 205.337,356.099 203.17,358.083C201.054,360.015 199.996,362.495 199.996,365.523C199.996,368.865 201.028,371.449 203.092,373.276C205.208,375.104 207.736,376.017 210.677,376.017ZM221.126,398.102C221.126,394.291 220.12,391.315 218.107,389.174C216.095,387.034 213.541,385.963 210.445,385.963C207.349,385.963 204.821,387.034 202.86,389.174C200.951,391.315 199.996,394.5 199.996,398.729L199.996,459.892C199.996,464.069 200.951,467.28 202.86,469.525C204.821,471.77 207.349,472.893 210.445,472.893C213.541,472.893 216.095,471.796 218.107,469.603C220.12,467.411 221.126,464.174 221.126,459.892L221.126,398.102ZM110.138,374.06C113.802,374.06 116.511,373.25 118.265,371.632C120.071,369.961 120.974,367.768 120.974,365.053C120.974,362.391 120.071,360.25 118.265,358.632C116.511,356.961 113.802,356.125 110.138,356.125L55.961,356.125C52.71,356.125 50.027,356.621 47.911,357.613C45.847,358.553 44.325,360.093 43.345,362.234C42.365,364.322 41.874,367.037 41.874,370.379L41.874,458.718C41.874,463.469 42.932,467.019 45.048,469.368C47.215,471.718 50.001,472.893 53.406,472.893C56.76,472.893 59.495,471.744 61.611,469.447C63.778,467.097 64.861,463.521 64.861,458.718L64.861,420.892L102.708,420.892C106.165,420.892 108.771,420.109 110.525,418.542C112.28,416.976 113.157,414.861 113.157,412.199C113.157,409.536 112.28,407.422 110.525,405.855C108.823,404.237 106.217,403.428 102.708,403.428L64.861,403.428L64.861,374.06L110.138,374.06ZM151.546,442.037C151.546,435.615 151.752,430.185 152.165,425.747C152.578,421.257 153.326,417.394 154.409,414.157C155.493,410.92 157.015,408.492 158.976,406.873C160.937,405.203 163.465,404.367 166.561,404.367C168.831,404.367 171.437,404.863 174.378,405.855C177.371,406.795 179.254,407.265 180.028,407.265C182.092,407.265 184.001,406.43 185.755,404.759C187.561,403.036 188.464,400.869 188.464,398.259C188.464,394.552 186.374,391.576 182.195,389.331C178.016,387.086 173.707,385.963 169.27,385.963C164.832,385.963 161.272,387.086 158.589,389.331C155.957,391.576 153.378,394.891 150.849,399.277C150.694,394.891 149.843,391.576 148.295,389.331C146.747,387.086 144.219,385.963 140.71,385.963C133.848,385.963 130.416,390.767 130.416,400.373L130.416,459.892C130.416,464.174 131.397,467.411 133.358,469.603C135.318,471.796 137.821,472.893 140.865,472.893C143.961,472.893 146.515,471.822 148.527,469.682C150.54,467.489 151.546,464.226 151.546,459.892L151.546,442.037Z" style="fill:rgb(255, 255, 255);"/>
                </g>
            </g>
        </g>
    </g>
</svg>
