<?xml version="1.0" encoding="UTF-8" standalone="no"?>
<!DOCTYPE svg PUBLIC "-//W3C//DTD SVG 1.1//EN" "http://www.w3.org/Graphics/SVG/1.1/DTD/svg11.dtd">
<svg width="100%" height="100%" viewBox="0 0 256 256" version="1.1" xmlns="http://www.w3.org/2000/svg" xmlns:xlink="http://www.w3.org/1999/xlink" xml:space="preserve" xmlns:serif="http://www.serif.com/" style="fill-rule:evenodd;clip-rule:evenodd;stroke-linejoin:round;stroke-miterlimit:2;">
    <g transform="matrix(1,0,0,1,-549,-286)">
        <g id="repeats-wendnesday" transform="matrix(1,0,0,1,549,286)">
            <rect x="0" y="0" width="256" height="256" style="fill:none;"/>
            <g transform="matrix(1.01186,0,0,1,-5.05929,-286)">
                <path d="M131.5,286C201.317,286 258,343.355 258,414C258,484.645 201.317,542 131.5,542C61.683,542 5,484.645 5,414C5,343.355 61.683,286 131.5,286ZM228.749,435.145C234.27,435.145 238.553,434.362 241.597,432.796C244.641,431.177 246.164,427.679 246.164,422.301C246.164,416.506 244.693,410.815 241.752,405.229C238.811,399.642 234.373,395.1 228.44,391.602C222.558,388.052 215.489,386.277 207.233,386.277C200.886,386.277 195.107,387.321 189.896,389.409C184.685,391.445 180.299,394.395 176.739,398.259C173.178,402.122 170.469,406.769 168.612,412.199C166.754,417.576 165.826,423.424 165.826,429.741C165.826,443.159 169.592,453.784 177.126,461.615C184.659,469.447 195.211,473.363 208.781,473.363C214.715,473.363 219.952,472.579 224.492,471.013C229.085,469.447 232.877,467.489 235.87,465.14C238.914,462.738 241.184,460.258 242.681,457.7C244.177,455.089 244.925,452.818 244.925,450.886C244.925,448.693 244.254,446.997 242.913,445.796C241.571,444.595 239.817,443.995 237.65,443.995C235.638,443.995 234.09,444.464 233.006,445.404C230.375,447.91 228.233,449.894 226.582,451.356C224.931,452.818 223.125,454.202 221.164,455.507C219.204,456.76 217.166,457.7 215.05,458.326C212.986,458.9 210.69,459.188 208.162,459.188C204.395,459.188 200.938,458.248 197.79,456.368C194.695,454.489 192.192,451.695 190.283,447.989C188.425,444.282 187.471,440 187.419,435.145L228.749,435.145ZM187.419,423.006C188.142,415.801 190.18,410.371 193.534,406.717C196.939,403.01 201.273,401.156 206.536,401.156C212.057,401.156 216.495,402.984 219.849,406.638C223.254,410.241 225.215,415.697 225.731,423.006L187.419,423.006ZM106.849,453.314C108.345,458.692 109.506,462.503 110.332,464.748C111.158,466.941 112.628,468.925 114.744,470.7C116.859,472.475 119.671,473.363 123.18,473.363C126.895,473.363 129.759,472.449 131.771,470.622C133.835,468.794 135.28,466.68 136.105,464.278C136.982,461.824 138.066,457.987 139.356,452.766L158.241,375.469C159.376,370.77 159.943,367.351 159.943,365.21C159.943,362.182 158.886,359.676 156.77,357.692C154.706,355.656 152.178,354.637 149.185,354.637C146.193,354.637 143.896,355.421 142.297,356.987C140.749,358.553 139.64,360.328 138.969,362.312C138.35,364.296 137.679,367.037 136.956,370.535L122.096,437.573L105.301,374.843C103.908,369.674 102.799,365.967 101.973,363.722C101.147,361.477 99.651,359.415 97.484,357.535C95.369,355.603 92.376,354.637 88.506,354.637C84.688,354.637 81.669,355.551 79.451,357.378C77.232,359.206 75.632,361.373 74.652,363.879C73.672,366.385 72.562,370.039 71.324,374.843L54.684,437.573L39.823,370.535C38.74,365.367 37.476,361.425 36.031,358.71C34.586,355.995 31.774,354.637 27.595,354.637C24.55,354.637 21.996,355.656 19.932,357.692C17.868,359.728 16.836,362.234 16.836,365.21C16.836,367.559 17.404,370.979 18.539,375.469L37.424,452.766C37.992,455.063 38.637,457.569 39.359,460.284C40.081,462.947 41.01,465.27 42.145,467.254C43.28,469.186 44.751,470.674 46.557,471.718C48.414,472.814 50.762,473.363 53.6,473.363C57.109,473.363 59.921,472.475 62.036,470.7C64.152,468.873 65.622,466.836 66.448,464.591C67.325,462.294 68.486,458.535 69.931,453.314L88.506,384.475L106.849,453.314Z" style="fill:rgb(255, 255, 255);"/>
            </g>
        </g>
    </g>
</svg>
