<?xml version="1.0" encoding="UTF-8" standalone="no"?>
<!DOCTYPE svg PUBLIC "-//W3C//DTD SVG 1.1//EN" "http://www.w3.org/Graphics/SVG/1.1/DTD/svg11.dtd">
<svg width="100%" height="100%" viewBox="0 0 256 256" version="1.1" xmlns="http://www.w3.org/2000/svg" xmlns:xlink="http://www.w3.org/1999/xlink" xml:space="preserve" xmlns:serif="http://www.serif.com/" style="fill-rule:evenodd;clip-rule:evenodd;stroke-linejoin:round;stroke-miterlimit:2;">
    <g transform="matrix(1,0,0,1,-1663,-286)">
        <g id="repeats-sunday" transform="matrix(1,0,0,1,1663,286)">
            <rect x="0" y="0" width="256" height="256" style="fill:none;"/>
            <clipPath id="_clip1">
                <rect x="0" y="0" width="256" height="256"/>
            </clipPath>
            <g clip-path="url(#_clip1)">
                <g transform="matrix(1,0,0,1,-1663,-286)">
                    <path d="M1791,286C1861.64,286 1919,343.355 1919,414C1919,484.645 1861.64,542 1791,542C1720.36,542 1663,484.645 1663,414C1663,343.355 1720.36,286 1791,286ZM1789.71,436.914C1789.71,431.127 1788.67,426.252 1786.58,422.29C1784.55,418.275 1781.68,414.965 1777.98,412.358C1774.33,409.751 1769.87,407.535 1764.61,405.71C1759.39,403.886 1753.55,402.217 1747.09,400.705C1741.93,399.402 1738.23,398.411 1735.98,397.733C1733.74,397.056 1731.53,396.117 1729.34,394.918C1727.15,393.719 1725.42,392.285 1724.17,390.617C1722.92,388.948 1722.3,386.967 1722.3,384.673C1722.3,380.971 1724.12,377.817 1727.77,375.21C1731.47,372.551 1736.32,371.222 1742.32,371.222C1748.78,371.222 1753.48,372.447 1756.39,374.898C1759.31,377.296 1761.82,380.659 1763.9,384.986C1765.52,388.01 1767,390.2 1768.36,391.555C1769.77,392.859 1771.8,393.51 1774.46,393.51C1777.38,393.51 1779.8,392.415 1781.73,390.226C1783.71,387.984 1784.7,385.481 1784.7,382.718C1784.7,379.694 1783.92,376.592 1782.36,373.412C1780.79,370.231 1778.32,367.207 1774.93,364.34C1771.54,361.42 1767.27,359.1 1762.1,357.38C1756.99,355.607 1750.92,354.721 1743.88,354.721C1735.07,354.721 1727.41,356.05 1720.89,358.709C1714.37,361.316 1709.39,365.07 1705.95,369.971C1702.51,374.872 1700.79,380.476 1700.79,386.785C1700.79,393.406 1702.41,398.959 1705.64,403.442C1708.92,407.874 1713.33,411.393 1718.86,414C1724.43,416.555 1731.34,418.797 1739.58,420.726C1745.73,422.133 1750.63,423.463 1754.28,424.714C1757.99,425.965 1760.98,427.79 1763.28,430.188C1765.62,432.535 1766.8,435.611 1766.8,439.417C1766.8,444.213 1764.63,448.228 1760.31,451.46C1756.03,454.64 1750.45,456.231 1743.57,456.231C1738.56,456.231 1734.52,455.449 1731.45,453.884C1728.37,452.268 1725.97,450.235 1724.25,447.784C1722.58,445.334 1721.02,442.284 1719.56,438.635C1718.36,435.558 1716.9,433.238 1715.18,431.674C1713.51,430.11 1711.45,429.328 1709,429.328C1705.98,429.328 1703.48,430.345 1701.5,432.378C1699.57,434.359 1698.6,436.758 1698.6,439.573C1698.6,444.422 1700.22,449.427 1703.45,454.588C1706.73,459.698 1710.98,463.79 1716.2,466.866C1723.55,471.142 1732.88,473.279 1744.19,473.279C1753.63,473.279 1761.79,471.715 1768.67,468.587C1775.56,465.459 1780.77,461.131 1784.31,455.605C1787.91,450.079 1789.71,443.848 1789.71,436.914ZM1863.38,461.236C1863.38,465.042 1864.32,468.013 1866.19,470.151C1868.12,472.237 1870.55,473.279 1873.47,473.279C1876.39,473.279 1878.76,472.263 1880.58,470.229C1882.46,468.196 1883.4,465.146 1883.4,461.079L1883.4,399.219C1883.4,394.944 1882.43,391.764 1880.51,389.678C1878.58,387.541 1876.02,386.472 1872.84,386.472C1869.66,386.472 1867.08,387.541 1865.1,389.678C1863.12,391.816 1862.13,394.996 1862.13,399.219L1862.13,425.183C1862.13,435.402 1861.53,442.023 1860.33,445.047C1858.87,448.488 1856.55,451.278 1853.37,453.415C1850.19,455.553 1846.8,456.622 1843.2,456.622C1839.5,456.622 1836.55,455.683 1834.37,453.806C1832.23,451.877 1830.74,449.244 1829.91,445.908C1829.07,442.519 1828.66,438.348 1828.66,433.395L1828.66,399.219C1828.66,394.996 1827.66,391.816 1825.68,389.678C1823.7,387.541 1821.1,386.472 1817.86,386.472C1814.68,386.472 1812.13,387.541 1810.2,389.678C1808.27,391.764 1807.31,394.944 1807.31,399.219L1807.31,441.528C1807.31,450.026 1808.63,456.543 1811.29,461.079C1813.54,464.833 1816.69,467.779 1820.76,469.916C1824.88,472.054 1829.52,473.123 1834.68,473.123C1838.95,473.123 1842.76,472.575 1846.1,471.481C1849.43,470.438 1852.51,468.822 1855.32,466.632C1858.14,464.442 1860.82,461.731 1863.38,458.499L1863.38,461.236Z" style="fill:rgb(255, 255, 255);"/>
                </g>
            </g>
        </g>
    </g>
</svg>
