<?xml version="1.0" encoding="UTF-8" standalone="no"?>
<!DOCTYPE svg PUBLIC "-//W3C//DTD SVG 1.1//EN" "http://www.w3.org/Graphics/SVG/1.1/DTD/svg11.dtd">
<svg width="100%" height="100%" viewBox="0 0 256 256" version="1.1" xmlns="http://www.w3.org/2000/svg" xmlns:xlink="http://www.w3.org/1999/xlink" xml:space="preserve" xmlns:serif="http://www.serif.com/" style="fill-rule:evenodd;clip-rule:evenodd;stroke-linejoin:round;stroke-miterlimit:2;">
    <g transform="matrix(1,0,0,1,-1131,0)">
        <g id="save-button" transform="matrix(1,0,0,1,1131,0)">
            <rect x="0" y="0" width="256" height="256" style="fill:none;"/>
            <g transform="matrix(0.698283,0,0,0.998835,-734.232,0.121155)">
                <rect x="1146" y="9.89" width="174" height="94.11" style="fill:rgb(96,190,200);"/>
            </g>
            <g transform="matrix(1.19828,0,0,0.998835,-1349.48,136.065)">
                <rect x="1146" y="8" width="174" height="96" style="fill:rgb(96,190,200);"/>
            </g>
            <g transform="matrix(1,0,0,1,-1130,-1.42109e-14)">
                <path d="M1373.78,10C1374.76,10.807 1375.57,11.821 1376.12,12.976L1373.01,10L1373.78,10ZM1319.48,10L1377,65.011L1377,239.197C1377,244.055 1373.06,248 1368.2,248L1147.8,248C1142.94,248 1139,244.055 1139,239.197L1139,16.803C1139,14.064 1140.25,11.615 1142.22,10L1198.5,10L1198.5,82.709C1198.5,89.492 1204.01,95 1210.79,95L1305.21,95C1311.99,95 1317.5,89.492 1317.5,82.709L1317.5,10L1319.48,10ZM1353.5,160.029C1353.5,153.39 1348.11,148 1341.47,148L1174.53,148C1167.89,148 1162.5,153.39 1162.5,160.029L1162.5,223.971C1162.5,230.61 1167.89,236 1174.53,236L1341.47,236C1348.11,236 1353.5,230.61 1353.5,223.971L1353.5,160.029Z" style="fill:rgb(206,250,238);"/>
            </g>
            <g transform="matrix(1,0,0,1.0982,-1129,-9.24918)">
                <path d="M1296.53,17.528C1296.83,18.301 1297,19.135 1297,20.005L1297,76.715C1297,80.736 1293.41,84 1289,84L1273,84C1268.59,84 1265,80.736 1265,76.715L1265,20.005C1265,19.135 1265.17,18.301 1265.48,17.528L1296.53,17.528Z" style="fill:rgb(206,250,238);"/>
            </g>
            <g transform="matrix(1,0,0,1,-1134,-9)">
                <path d="M1340,173.75L1340,177.25C1340,178.216 1339.22,179 1338.25,179L1185.75,179C1184.78,179 1184,178.216 1184,177.25L1184,173.75C1184,172.784 1184.78,172 1185.75,172L1338.25,172C1339.22,172 1340,172.784 1340,173.75Z" style="fill:rgb(206,250,238);"/>
            </g>
            <g transform="matrix(1,0,0,1,-1134,5)">
                <path d="M1340,173.75L1340,177.25C1340,178.216 1339.22,179 1338.25,179L1185.75,179C1184.78,179 1184,178.216 1184,177.25L1184,173.75C1184,172.784 1184.78,172 1185.75,172L1338.25,172C1339.22,172 1340,172.784 1340,173.75Z" style="fill:rgb(206,250,238);"/>
            </g>
            <g transform="matrix(1,0,0,1,-1134,20)">
                <path d="M1340,173.75L1340,177.25C1340,178.216 1339.22,179 1338.25,179L1185.75,179C1184.78,179 1184,178.216 1184,177.25L1184,173.75C1184,172.784 1184.78,172 1185.75,172L1338.25,172C1339.22,172 1340,172.784 1340,173.75Z" style="fill:rgb(206,250,238);"/>
            </g>
        </g>
    </g>
</svg>
