<?xml version="1.0" encoding="UTF-8" standalone="no"?>
<!DOCTYPE svg PUBLIC "-//W3C//DTD SVG 1.1//EN" "http://www.w3.org/Graphics/SVG/1.1/DTD/svg11.dtd">
<svg width="100%" height="100%" viewBox="0 0 256 256" version="1.1" xmlns="http://www.w3.org/2000/svg" xmlns:xlink="http://www.w3.org/1999/xlink" xml:space="preserve" xmlns:serif="http://www.serif.com/" style="fill-rule:evenodd;clip-rule:evenodd;stroke-linejoin:round;stroke-miterlimit:2;">
    <g transform="matrix(1,0,0,1,-828,-286)">
        <g id="repeats-thursday" transform="matrix(1,0,0,1,828,286)">
            <rect x="0" y="0" width="256" height="256" style="fill:none;"/>
            <clipPath id="_clip1">
                <rect x="0" y="0" width="256" height="256"/>
            </clipPath>
            <g clip-path="url(#_clip1)">
                <g transform="matrix(1.01186,0,0,1,-5.05929,-286)">
                    <path d="M131.5,286C201.317,286 258,343.355 258,414C258,484.645 201.317,542 131.5,542C61.683,542 5,484.645 5,414C5,343.355 61.683,286 131.5,286ZM167.993,367.638C167.993,363.356 167.038,360.119 165.129,357.927C163.271,355.734 160.666,354.637 157.312,354.637C154.01,354.637 151.43,355.734 149.572,357.927C147.766,360.067 146.863,363.304 146.863,367.638L146.863,460.362C146.863,469.029 150.346,473.363 157.312,473.363C160.666,473.363 163.271,472.266 165.129,470.073C167.038,467.828 167.993,464.591 167.993,460.362L167.993,432.091C167.993,423.946 168.56,418.281 169.695,415.096C171.192,411.337 173.436,408.387 176.429,406.247C179.473,404.054 182.879,402.958 186.645,402.958C192.27,402.958 196.088,404.811 198.1,408.518C200.112,412.173 201.119,417.42 201.119,424.259L201.119,460.362C201.119,469.029 204.601,473.363 211.567,473.363C214.766,473.363 217.32,472.266 219.229,470.073C221.19,467.881 222.171,464.644 222.171,460.362L222.171,419.404C222.171,415.279 221.913,411.651 221.397,408.518C220.881,405.333 219.874,402.462 218.378,399.903C216.005,395.518 212.728,392.176 208.549,389.879C204.421,387.582 199.674,386.433 194.308,386.433C190.747,386.433 187.419,386.903 184.323,387.843C181.228,388.73 178.39,390.088 175.81,391.915C173.281,393.743 170.676,396.223 167.993,399.355L167.993,367.638ZM125.502,375.782C129.423,375.782 132.364,374.921 134.325,373.198C136.286,371.423 137.266,369.1 137.266,366.228C137.266,363.356 136.286,361.033 134.325,359.258C132.416,357.483 129.475,356.595 125.502,356.595L52.439,356.595C48.672,356.595 45.783,357.457 43.771,359.18C41.81,360.903 40.829,363.252 40.829,366.228C40.829,369.1 41.784,371.423 43.693,373.198C45.602,374.921 48.518,375.782 52.439,375.782L77.516,375.782L77.516,459.188C77.516,463.939 78.573,467.489 80.689,469.838C82.856,472.188 85.642,473.363 89.048,473.363C92.402,473.363 95.136,472.214 97.252,469.917C99.367,467.567 100.425,463.991 100.425,459.188L100.425,375.782L125.502,375.782Z" style="fill:rgb(255, 255, 255);"/>
                </g>
            </g>
        </g>
    </g>
</svg>
