<?xml version="1.0" encoding="UTF-8" standalone="no"?>
<!DOCTYPE svg PUBLIC "-//W3C//DTD SVG 1.1//EN" "http://www.w3.org/Graphics/SVG/1.1/DTD/svg11.dtd">
<svg width="100%" height="100%" viewBox="0 0 256 256" version="1.1" xmlns="http://www.w3.org/2000/svg" xmlns:xlink="http://www.w3.org/1999/xlink" xml:space="preserve" xmlns:serif="http://www.serif.com/" style="fill-rule:evenodd;clip-rule:evenodd;stroke-linejoin:round;stroke-miterlimit:2;">
    <g transform="matrix(1,0,0,1,-275,-286)">
        <g id="repeats-tuesday" transform="matrix(1,0,0,1,275,286)">
            <rect x="0" y="0" width="256" height="256" style="fill:none;"/>
            <clipPath id="_clip1">
                <rect x="0" y="0" width="256" height="256"/>
            </clipPath>
            <g clip-path="url(#_clip1)">
                <g transform="matrix(1.01186,0,0,1,-5.05929,-286)">
                    <path d="M131.5,286C201.317,286 258,343.355 258,414C258,484.645 201.317,542 131.5,542C61.683,542 5,484.645 5,414C5,343.355 61.683,286 131.5,286ZM128.482,374.803C132.403,374.803 135.344,373.942 137.305,372.219C139.265,370.444 140.246,368.121 140.246,365.249C140.246,362.378 139.265,360.054 137.305,358.279C135.396,356.504 132.455,355.616 128.482,355.616L55.419,355.616C51.652,355.616 48.763,356.478 46.75,358.201C44.79,359.924 43.809,362.273 43.809,365.249C43.809,368.121 44.764,370.444 46.673,372.219C48.582,373.942 51.497,374.803 55.419,374.803L80.495,374.803L80.495,458.209C80.495,462.96 81.553,466.51 83.669,468.859C85.836,471.209 88.622,472.384 92.028,472.384C95.381,472.384 98.116,471.235 100.232,468.938C102.347,466.588 103.405,463.012 103.405,458.209L103.405,374.803L128.482,374.803ZM199.377,460.323C199.377,464.134 200.306,467.11 202.163,469.251C204.073,471.339 206.472,472.384 209.361,472.384C212.251,472.384 214.599,471.366 216.404,469.329C218.262,467.293 219.191,464.239 219.191,460.167L219.191,398.22C219.191,393.938 218.236,390.754 216.327,388.665C214.418,386.525 211.89,385.454 208.742,385.454C205.595,385.454 203.041,386.525 201.08,388.665C199.119,390.806 198.139,393.991 198.139,398.22L198.139,424.22C198.139,434.453 197.545,441.084 196.359,444.112C194.914,447.558 192.618,450.351 189.47,452.492C186.323,454.632 182.969,455.703 179.409,455.703C175.745,455.703 172.83,454.763 170.663,452.883C168.547,450.951 167.077,448.315 166.251,444.973C165.426,441.58 165.013,437.403 165.013,432.443L165.013,398.22C165.013,393.991 164.033,390.806 162.072,388.665C160.111,386.525 157.531,385.454 154.332,385.454C151.185,385.454 148.656,386.525 146.747,388.665C144.838,390.754 143.884,393.938 143.884,398.22L143.884,440.588C143.884,449.098 145.199,455.624 147.831,460.167C150.049,463.926 153.171,466.875 157.196,469.016C161.272,471.157 165.864,472.227 170.972,472.227C175.203,472.227 178.97,471.679 182.272,470.582C185.575,469.538 188.619,467.92 191.405,465.727C194.192,463.534 196.849,460.819 199.377,457.582L199.377,460.323Z" style="fill:rgb(255, 255, 255);"/>
                </g>
            </g>
        </g>
    </g>
</svg>
