<?xml version="1.0" encoding="UTF-8" standalone="no"?>
<!DOCTYPE svg PUBLIC "-//W3C//DTD SVG 1.1//EN" "http://www.w3.org/Graphics/SVG/1.1/DTD/svg11.dtd">
<svg width="100%" height="100%" viewBox="0 0 256 256" version="1.1" xmlns="http://www.w3.org/2000/svg" xmlns:xlink="http://www.w3.org/1999/xlink" xml:space="preserve" xmlns:serif="http://www.serif.com/" style="fill-rule:evenodd;clip-rule:evenodd;stroke-linejoin:round;stroke-miterlimit:2;">
    <g transform="matrix(1,0,0,1,-1413,0)">
        <g id="cancel-button" transform="matrix(1,0,0,1,1413,0)">
            <rect x="0" y="0" width="256" height="256" style="fill:none;"/>
            <g transform="matrix(0.957107,-0.957107,0.707107,0.707107,-1407.88,1564.89)">
                <path d="M1663,60L1663,80C1663,85.519 1659.69,90 1655.61,90L1450.39,90C1446.31,90 1443,85.519 1443,80L1443,60C1443,54.481 1446.31,50 1450.39,50L1655.61,50C1659.69,50 1663,54.481 1663,60Z" style="fill:rgb(206,250,238);"/>
            </g>
            <g transform="matrix(0.957107,0.957107,-0.707107,0.707107,-1308.89,-1407.88)">
                <path d="M1663,60L1663,80C1663,85.519 1659.69,90 1655.61,90L1450.39,90C1446.31,90 1443,85.519 1443,80L1443,60C1443,54.481 1446.31,50 1450.39,50L1655.61,50C1659.69,50 1663,54.481 1663,60Z" style="fill:rgb(206,250,238);"/>
            </g>
        </g>
    </g>
</svg>
